HIERARCHY
ROOT Hips
{
	OFFSET 0.000000 1.471914 24.280096
	CHANNELS 6 Xposition Yposition Zposition Xrotation Yrotation Zrotation
	JOINT Spine
	{
		OFFSET 0.000000 0.900110 1.860670
		CHANNELS 6 Xposition Yposition Zposition Xrotation Yrotation Zrotation
		JOINT Spine1
		{
			OFFSET 0.000000 0.400320 2.270309
			CHANNELS 6 Xposition Yposition Zposition Xrotation Yrotation Zrotation
			JOINT Spine2
			{
				OFFSET 0.000000 0.200920 2.296560
				CHANNELS 6 Xposition Yposition Zposition Xrotation Yrotation Zrotation
				JOINT Spine3
				{
					OFFSET 0.000000 0.000000 2.305330
					CHANNELS 6 Xposition Yposition Zposition Xrotation Yrotation Zrotation
					JOINT Neck
					{
						OFFSET 0.000000 -0.864490 6.051487
						CHANNELS 6 Xposition Yposition Zposition Xrotation Yrotation Zrotation
						JOINT Head
						{
							OFFSET 0.000000 -0.550429 3.121674
							CHANNELS 6 Xposition Yposition Zposition Xrotation Yrotation Zrotation
							End Site
							{
								OFFSET 0.000000 0.000000 3.731750
							}
						}
					}
					JOINT RightShoulder
					{
						OFFSET -0.788280 -1.313800 4.256718
						CHANNELS 6 Xposition Yposition Zposition Xrotation Yrotation Zrotation
						JOINT RightArm
						{
							OFFSET -3.915130 0.000000 0.000000
							CHANNELS 6 Xposition Yposition Zposition Xrotation Yrotation Zrotation
							JOINT RightForeArm
							{
								OFFSET -6.914910 0.000000 0.000000
								CHANNELS 6 Xposition Yposition Zposition Xrotation Yrotation Zrotation
								JOINT RightHand
								{
									OFFSET -6.096219 0.000000 0.000000
									CHANNELS 6 Xposition Yposition Zposition Xrotation Yrotation Zrotation
									JOINT RightHandEnd
									{
										OFFSET -1.749950 0.000000 0.000000
										CHANNELS 6 Xposition Yposition Zposition Xrotation Yrotation Zrotation
										End Site
										{
											OFFSET -1.749950 0.000000 0.000000
										}
									}
									JOINT RightHandThumb1
									{
										OFFSET -0.699980 -1.166630 -0.466648
										CHANNELS 6 Xposition Yposition Zposition Xrotation Yrotation Zrotation
										End Site
										{
											OFFSET -1.690319 -0.452920 0.000000
										}
									}
								}
							}
						}
					}
					JOINT LeftShoulder
					{
						OFFSET 0.788280 -1.313800 4.256718
						CHANNELS 6 Xposition Yposition Zposition Xrotation Yrotation Zrotation
						JOINT LeftArm
						{
							OFFSET 3.915130 0.000000 0.000000
							CHANNELS 6 Xposition Yposition Zposition Xrotation Yrotation Zrotation
							JOINT LeftForeArm
							{
								OFFSET 6.914910 0.000000 0.000000
								CHANNELS 6 Xposition Yposition Zposition Xrotation Yrotation Zrotation
								JOINT LeftHand
								{
									OFFSET 6.096219 0.000000 0.000000
									CHANNELS 6 Xposition Yposition Zposition Xrotation Yrotation Zrotation
									JOINT LeftHandEnd
									{
										OFFSET 1.749950 0.000000 0.000000
										CHANNELS 6 Xposition Yposition Zposition Xrotation Yrotation Zrotation
										End Site
										{
											OFFSET 1.749950 0.000000 0.000000
										}
									}
									JOINT LeftHandThumb1
									{
										OFFSET 0.699980 -1.166630 -0.466648
										CHANNELS 6 Xposition Yposition Zposition Xrotation Yrotation Zrotation
										End Site
										{
											OFFSET 1.690319 -0.452920 0.000000
										}
									}
								}
							}
						}
					}
				}
			}
		}
	}
	JOINT RightUpLeg
	{
		OFFSET -2.338570 -0.252550 -0.551512
		CHANNELS 6 Xposition Yposition Zposition Xrotation Yrotation Zrotation
		JOINT RightLeg
		{
			OFFSET 0.000000 0.000000 -10.744959
			CHANNELS 6 Xposition Yposition Zposition Xrotation Yrotation Zrotation
			JOINT RightFoot
			{
				OFFSET 0.000000 -0.000001 -10.930849
				CHANNELS 6 Xposition Yposition Zposition Xrotation Yrotation Zrotation
				JOINT RightToeBase
				{
					OFFSET 0.000000 -4.087269 -1.487650
					CHANNELS 6 Xposition Yposition Zposition Xrotation Yrotation Zrotation
					End Site
					{
						OFFSET 0.000000 -1.891870 0.000000
					}
				}
			}
		}
	}
	JOINT LeftUpLeg
	{
		OFFSET 2.338570 -0.252550 -0.551512
		CHANNELS 6 Xposition Yposition Zposition Xrotation Yrotation Zrotation
		JOINT LeftLeg
		{
			OFFSET 0.000000 0.000000 -10.744959
			CHANNELS 6 Xposition Yposition Zposition Xrotation Yrotation Zrotation
			JOINT LeftFoot
			{
				OFFSET 0.000000 -0.000001 -10.930849
				CHANNELS 6 Xposition Yposition Zposition Xrotation Yrotation Zrotation
				JOINT LeftToeBase
				{
					OFFSET 0.000000 -4.087269 -1.487650
					CHANNELS 6 Xposition Yposition Zposition Xrotation Yrotation Zrotation
					End Site
					{
						OFFSET 0.000000 -1.891870 0.000000
					}
				}
			}
		}
	}
}
MOTION
Frames: 5
Frame Time: 0.041667
0.000428 26.657047 40.812943 7.857068 -11.319351 -75.374921 -0.000003 0.900079 1.860696 -7.573601 8.269985 -0.226212 -0.000017 0.400283 2.270286 0.000006 0.000000 0.000017 0.000013 0.200881 2.296560 -0.000000 -0.000001 0.000001 0.000015 0.000032 2.305344 0.000011 -0.000003 37.824676 -0.000021 -0.864429 6.051365 24.902771 27.711923 -155.070880 0.000041 -0.550414 3.121681 -0.000000 -0.000001 -0.000008 -0.788272 -1.313711 4.256863 -121.353651 56.912223 -50.117442 -3.915128 -0.000025 -0.000020 0.000000 -0.000009 0.000000 -6.914843 0.000003 0.000034 -0.000002 0.000007 -38.399522 -6.096200 -0.000007 0.000030 -0.000040 -0.000065 -0.000002 -1.749907 -0.000019 0.000034 -0.000004 0.000000 0.000001 -0.699968 -1.166622 -0.466650 -0.000028 -0.000011 -0.000028 0.788255 -1.313771 4.256790 -154.381113 -48.876451 43.612196 3.915246 -0.000012 -0.000027 0.000001 0.000002 -0.000001 6.914923 -0.000085 0.000014 -0.000003 -0.000002 100.377853 6.096268 0.000174 -0.000040 -0.000026 0.000057 -0.000008 1.750009 0.000033 0.000053 -0.000009 -0.000004 -0.000000 0.700009 -1.166573 -0.466634 0.000049 -0.000012 -0.000037 -2.338584 -0.252536 -0.551459 -17.979428 -8.915951 -0.516344 0.000022 -0.000004 -10.744942 19.627221 16.341197 -2.436988 -0.000021 0.000072 -10.930843 0.000051 -0.000005 -0.000001 -0.000020 -4.087245 -1.487615 0.000002 -0.000001 -0.000003 2.338606 -0.252525 -0.551524 -3.384648 13.522911 -0.148522 -0.000013 -0.000017 -10.744935 7.425263 -4.892549 1.956948 0.000026 -0.000012 -10.930860 0.000009 -0.000004 0.000004 -0.000067 -4.087201 -1.487655 -0.000003 -0.000003 -0.000002 
0.000019 26.656858 40.812271 8.959416 2.122387 -38.763629 -0.000002 0.900084 1.860695 9.171600 -3.474581 0.077877 -0.000016 0.400282 2.270280 0.000006 -0.000000 0.000015 0.000008 0.200883 2.296555 0.000001 -0.000002 0.000001 0.000020 0.000031 2.305341 0.000012 0.000004 -7.208320 -0.000024 -0.864429 6.051359 29.807349 -43.751801 -97.207068 0.000041 -0.550406 3.121685 -0.000009 -0.000001 -0.000007 -0.788272 -1.313712 4.256854 -136.497943 63.215382 -55.203194 -3.915134 -0.000026 -0.000020 0.000001 -0.000008 0.000003 -6.914842 0.000007 0.000035 -0.000176 -0.000108 -115.346841 -6.096196 -0.000005 0.000030 -0.000045 -0.000064 -0.000004 -1.749910 -0.000020 0.000034 -0.000004 0.000004 0.000001 -0.699968 -1.166621 -0.466645 -0.000028 -0.000009 -0.000031 0.788253 -1.313771 4.256790 -129.027615 -52.204604 29.424530 3.915243 -0.000013 -0.000031 -0.000002 0.000003 0.000006 6.914925 -0.000081 0.000018 0.000058 -0.000176 39.297876 6.096260 0.000172 -0.000032 -0.000024 0.000062 -0.000007 1.750016 0.000025 0.000058 -0.000010 -0.000002 -0.000001 0.700017 -1.166578 -0.466634 0.000042 -0.000008 -0.000038 -2.338583 -0.252528 -0.551463 4.870321 -6.699573 0.070570 0.000016 -0.000005 -10.744946 7.334992 -1.011917 -0.785197 -0.000021 0.000072 -10.930842 0.000050 -0.000003 -0.000002 -0.000022 -4.087243 -1.487612 0.000007 -0.000001 -0.000002 2.338608 -0.252521 -0.551527 -2.163589 -0.741190 -0.034873 -0.000014 -0.000015 -10.744928 24.651544 -9.100952 -0.150063 0.000028 -0.000010 -10.930862 0.000009 -0.000006 0.000001 -0.000060 -4.087207 -1.487656 -0.000001 -0.000000 0.000001 
0.000011 26.657084 40.812748 10.986764 3.445106 -0.136489 -0.000002 0.900086 1.860689 1.185532 -5.122758 0.280018 -0.000015 0.400285 2.270282 0.000006 -0.000001 0.000014 0.000007 0.200877 2.296558 0.000001 -0.000001 0.000001 0.000019 0.000038 2.305340 0.000014 0.000003 -22.459171 -0.000019 -0.864428 6.051354 35.737920 -71.374596 -115.285083 0.000049 -0.550408 3.121681 -0.000010 -0.000005 -0.000006 -0.788268 -1.313709 4.256855 -147.159636 50.547853 -42.816021 -3.915136 -0.000026 -0.000023 0.000000 -0.000009 0.000003 -6.914843 0.000002 0.000035 -0.000035 -0.000051 -58.968466 -6.096198 -0.000002 0.000028 -0.000047 -0.000064 -0.000004 -1.749906 -0.000015 0.000033 -0.000004 0.000004 -0.000000 -0.699963 -1.166619 -0.466646 -0.000026 -0.000007 -0.000030 0.788260 -1.313772 4.256789 -240.752721 -62.549793 -41.541805 3.915243 -0.000016 -0.000027 0.000001 0.000001 -0.000001 6.914923 -0.000083 0.000012 0.000012 -0.000019 90.717295 6.096271 0.000171 -0.000040 -0.000023 0.000058 -0.000009 1.750012 0.000033 0.000054 -0.000013 -0.000002 -0.000001 0.700011 -1.166568 -0.466637 0.000042 -0.000008 -0.000036 -2.338583 -0.252526 -0.551462 6.998092 -11.375577 1.701127 0.000019 -0.000007 -10.744946 12.872963 -4.280617 0.480887 -0.000021 0.000074 -10.930843 0.000048 -0.000004 0.000000 -0.000022 -4.087241 -1.487616 0.000003 0.000002 -0.000002 2.338608 -0.252517 -0.551526 -16.335321 -3.836126 -3.833766 -0.000014 -0.000014 -10.744933 25.722624 -1.987166 3.914099 0.000027 -0.000016 -10.930863 0.000005 -0.000004 0.000002 -0.000063 -4.087209 -1.487655 0.000007 -0.000002 -0.000002 
0.000322 26.657215 40.813267 6.855176 -13.125932 -69.021397 0.000003 0.900083 1.860694 -7.455093 5.501893 -0.241125 -0.000016 0.400282 2.270286 0.000006 -0.000002 0.000011 0.000009 0.200884 2.296558 0.000000 -0.000001 -0.000000 0.000017 0.000033 2.305348 0.000011 -0.000001 29.856201 -0.000018 -0.864429 6.051360 -79.180990 71.508884 -143.331861 0.000043 -0.550409 3.121681 -0.000014 -0.000003 -0.000008 -0.788273 -1.313714 4.256858 -124.470827 52.023512 -44.115669 -3.915133 -0.000022 -0.000020 0.000000 -0.000009 0.000000 -6.914845 0.000008 0.000034 -0.000001 0.000006 -38.918858 -6.096209 -0.000004 0.000031 -0.000041 -0.000063 -0.000005 -1.749902 -0.000015 0.000027 -0.000002 0.000005 0.000003 -0.699966 -1.166619 -0.466642 -0.000026 -0.000009 -0.000028 0.788254 -1.313772 4.256798 -176.805157 -58.112588 23.785814 3.915236 -0.000014 -0.000027 -0.000001 0.000002 0.000001 6.914915 -0.000083 0.000020 -0.000017 0.000005 102.826183 6.096269 0.000169 -0.000036 -0.000023 0.000062 -0.000005 1.750009 0.000024 0.000059 -0.000003 -0.000006 0.000002 0.700009 -1.166583 -0.466634 0.000049 -0.000011 -0.000038 -2.338577 -0.252529 -0.551456 -19.775701 -7.923322 -0.618905 0.000018 -0.000002 -10.744949 22.096494 16.178367 -2.306266 -0.000019 0.000073 -10.930843 0.000051 -0.000006 -0.000000 -0.000024 -4.087242 -1.487615 0.000006 0.000000 0.000002 2.338612 -0.252519 -0.551518 -3.293762 13.120473 -0.162086 -0.000016 -0.000018 -10.744932 3.444424 -3.597847 0.897482 0.000026 -0.000011 -10.930861 0.000007 -0.000003 0.000001 -0.000062 -4.087204 -1.487655 -0.000003 -0.000000 -0.000003 
-0.000102 26.656948 40.812588 9.802831 0.514659 -40.832496 -0.000003 0.900081 1.860691 7.642785 -4.405995 -0.153536 -0.000016 0.400286 2.270292 0.000006 -0.000001 0.000013 0.000009 0.200881 2.296555 -0.000001 -0.000002 -0.000004 0.000018 0.000032 2.305340 0.000012 0.000005 -8.014826 -0.000021 -0.864426 6.051357 -99.686187 -71.726023 -184.657743 0.000044 -0.550411 3.121677 -0.000011 -0.000001 -0.000008 -0.788272 -1.313706 4.256854 -126.238343 55.015050 -66.219066 -3.915133 -0.000031 -0.000020 0.000003 -0.000005 0.000003 -6.914847 0.000002 0.000032 -0.000224 -0.000092 -134.169518 -6.096196 0.000000 0.000026 -0.000041 -0.000061 -0.000000 -1.749909 -0.000015 0.000031 -0.000001 0.000005 -0.000001 -0.699966 -1.166618 -0.466649 -0.000026 -0.000009 -0.000034 0.788257 -1.313766 4.256789 -120.359162 -55.759499 28.946328 3.915239 -0.000005 -0.000027 -0.000000 0.000004 -0.000006 6.914927 -0.000088 0.000013 0.000054 -0.000174 37.557294 6.096268 0.000173 -0.000033 -0.000030 0.000060 -0.000005 1.750008 0.000021 0.000058 -0.000008 -0.000005 0.000002 0.700011 -1.166583 -0.466633 0.000045 -0.000011 -0.000037 -2.338585 -0.252532 -0.551457 3.819755 -4.299155 -0.041595 0.000021 -0.000002 -10.744946 5.579998 -4.650774 -0.524330 -0.000024 0.000073 -10.930842 0.000050 -0.000003 -0.000003 -0.000023 -4.087244 -1.487613 0.000000 0.000001 -0.000004 2.338606 -0.252523 -0.551519 -5.579550 0.422834 0.097802 -0.000015 -0.000017 -10.744924 24.343194 -5.878663 -0.353367 0.000026 -0.000012 -10.930862 0.000007 -0.000005 0.000002 -0.000062 -4.087203 -1.487656 0.000003 -0.000003 -0.000004 
